# xmcd
#
# Track frame offsets:
#	150
#	7640
#	30722
#	59167
#	72640
#	87672
#	123930
#	145387
#	162140
#	167359
#	180467
#	206805
#	226042
#	254900
#
# Disc length: 3509 seconds
#
# Revision: 0
# Processed by: cddbd v1.5.1PL2 Copyright (c) Steve Scherf et al.
# Submitted via: EasyCDDAExtractor 8.2.1.1
#
DISCID=c30db30e
DTITLE=big bill broonzy - amsterdam live concerts 1953 [cd 1 - 26 february]
DYEAR=2006
DGENRE=blues
TTITLE0=big bill talks - on folk songs
TTITLE1=going down the road feeling bad
TTITLE2=when the sun goes down
TTITLE3=house rent stomp
TTITLE4=crawdad hole
TTITLE5=willie mae
TTITLE6=black, brown and white
TTITLE7=five foot seven
TTITLE8=caribbean rag
TTITLE9=happy birthday
TTITLE10=down by the riverside
TTITLE11=mindin' my own business
TTITLE12=just a dream
TTITLE13=glory of love (1)
EXTD=
EXTT0=
EXTT1=
EXTT2=
EXTT3=
EXTT4=
EXTT5=
EXTT6=
EXTT7=
EXTT8=
EXTT9=
EXTT10=
EXTT11=
EXTT12=
EXTT13=
PLAYORDER=
